# xmcd
# 
# Track frame offsets:
#     150
#     4303
#     55857
#     111074
#     164087
#     179172
# 
# Disc length: 2413
# 
# Revision: 0
# Processed by: cddbd v1.5.2PL0 Copyright (c) Steve Scherf et al.
# Submitted via: BonkEnc v1.0.8
# 
DISCID=51096b06
DTITLE=Miles Davis - [1969.07.07] Central Park 1969 - New York
DYEAR=1969
DGENRE=Contemporary Jazz
TTITLE0=No Blues (Incomplete)
TTITLE1=Miles Runs The Voodoo Down
TTITLE2=Masqualero
TTITLE3=Spanish Key
TTITLE4=Sanctuary
TTITLE5=The Theme
EXTD=
EXTT0=
EXTT1=
EXTT2=
EXTT3=
EXTT4=
EXTT5=
PLAYORDER=
